<?xml version="1.0" encoding="UTF-8"?>
<mxGraphModel dx="1067" dy="693" grid="1" gridSize="10" guides="1" tooltips="1" connect="1" arrows="1" fold="1" page="1" pageScale="1" pageWidth="827" pageHeight="1169" math="0" shadow="0">
  <root>
    <mxCell id="0" />
    <mxCell id="1" parent="0" />
    
    <!-- User Entity -->
    <mxCell id="User" value="User" style="shape=swimlane;" vertex="1" parent="1">
      <mxGeometry width="160" height="300" as="geometry" />
    </mxCell>
    <mxCell id="UserAttributes" value="User ID, Firstname, Name, Username, Password, E-Mail, Telephone, Additional Description, Driver's License, Profile Picture, Creation Date, Address ID, Role ID, Status ID" style="shape=note;" vertex="1" parent="User">
      <mxGeometry width="160" height="100" as="geometry" />
    </mxCell>
    
    <!-- Vehicle Mapping Entity -->
    <mxCell id="VehicleMapping" value="Vehicle Mapping" style="shape=swimlane;" vertex="1" parent="1">
      <mxGeometry width="160" height="180" as="geometry" />
    </mxCell>
    <mxCell id="VehicleMappingAttributes" value="Vehicle ID, Fuel Milage, Additional Info, License Plate, User ID, Status ID" style="shape=note;" vertex="1" parent="VehicleMapping">
      <mxGeometry width="160" height="80" as="geometry" />
    </mxCell>
    
    <!-- Status Entity -->
    <mxCell id="Status" value="Status" style="shape=swimlane;" vertex="1" parent="1">
      <mxGeometry width="160" height="100" as="geometry" />
    </mxCell>
    <mxCell id="StatusAttributes" value="Status ID, Status Description" style="shape=note;" vertex="1" parent="Status">
      <mxGeometry width="160" height="50" as="geometry" />
    </mxCell>
    
    <!-- Roles Entity -->
    <mxCell id="Roles" value="Roles" style="shape=swimlane;" vertex="1" parent="1">
      <mxGeometry width="160" height="100" as="geometry" />
    </mxCell>
    <mxCell id="RolesAttributes" value="Role ID, Name, Description" style="shape=note;" vertex="1" parent="Roles">
      <mxGeometry width="160" height="50" as="geometry" />
    </mxCell>
    
    <!-- Address Entity -->
    <mxCell id="Address" value="Address" style="shape=swimlane;" vertex="1" parent="1">
      <mxGeometry width="200" height="250" as="geometry" />
    </mxCell>
    <mxCell id="AddressAttributes" value="Address ID, City, Postal Code, Street, Country, Country Code, Region, State, Longitude, Latitude, Address Line1, Address Line2, Status ID" style="shape=note;" vertex="1" parent="Address">
      <mxGeometry width="200" height="120" as="geometry" />
    </mxCell>
    
    <!-- More entities like Event, Event Members, Chat Message, Invites, Notification, Stops, Schedule, Audit, Rating would be defined similarly here -->
    
  </root>
</mxGraphModel>
